# xmcd
#
# Track frame offsets:
#	150
#	17134
#	30485
#	45577
#	72722
#	99083
#
# Disc length: 1896 seconds
#
# Revision: 0
# Processed by: cddbd v1.5.2PL0 Copyright (c) Steve Scherf et al.
# Submitted via: dBpowerAMP V4.0
#
DISCID=44076606
DTITLE=Midnight Choir - Will You Carry Me Across The water
DYEAR=1900
DGENRE=
TTITLE0=Will You Carry Me Across The Water
TTITLE1=Waiting For The Bricks To Fall
TTITLE2=Perfect Sky
TTITLE3=Double Blank
TTITLE4=Bayview
TTITLE5=Merca On The Street
EXTD=
EXTT0=
EXTT1=
EXTT2=
EXTT3=
EXTT4=
EXTT5=
PLAYORDER=
